<svg width="20" height="20" viewBox="0 0 20 20" fill="none" xmlns="http://www.w3.org/2000/svg">
<path d="M10.0005 16.8748C10.0005 16.8748 2.18799 12.4998 2.18799 7.18726C2.18815 6.2483 2.5135 5.33838 3.10873 4.6122C3.70395 3.88601 4.53232 3.38839 5.45298 3.20393C6.37364 3.01948 7.32977 3.15958 8.15881 3.60041C8.98785 4.04125 9.63863 4.7556 10.0005 5.62203L10.0005 5.62203C10.3623 4.75561 11.0131 4.04125 11.8422 3.60042C12.6712 3.15958 13.6273 3.01948 14.548 3.20393C15.4687 3.38839 16.297 3.88601 16.8922 4.6122C17.4875 5.33838 17.8128 6.2483 17.813 7.18726C17.813 12.4998 10.0005 16.8748 10.0005 16.8748Z" stroke="#111113" stroke-width="1.71429" stroke-linecap="round" stroke-linejoin="round"/>
</svg>
